/* XPM */
static char *result[] = {
/* columns rows colors chars-per-pixel */
"50 50 142 2 ",
"   c #262526",
".  c #2A2724",
"X  c #2C2B26",
"o  c #27262B",
"O  c #28272B",
"+  c #2D2C2A",
"@  c #312621",
"#  c #312F2A",
"$  c #333127",
"%  c #33322C",
"&  c #38362F",
"*  c #272631",
"=  c #282732",
"-  c #2C2B34",
";  c #2F2E39",
":  c #302F37",
">  c #302F38",
",  c #2F3034",
"<  c #343334",
"1  c #383635",
"2  c #3B3A35",
"3  c #343339",
"4  c #38373A",
"5  c #37383B",
"6  c #3B3B3B",
"7  c #492518",
"8  c #422A1E",
"9  c #53271A",
"0  c #463E1D",
"q  c #6A240F",
"w  c #6C2611",
"e  c #432F24",
"r  c #4A372F",
"t  c #4A3A2F",
"y  c #58392C",
"u  c #453B34",
"i  c #514720",
"p  c #424137",
"a  c #44423C",
"s  c #48463E",
"d  c #6B6137",
"f  c #363543",
"g  c #383743",
"h  c #3D3C42",
"j  c #3F3E4A",
"k  c #403F43",
"l  c #37666E",
"z  c #346F7A",
"x  c #434244",
"c  c #484744",
"v  c #434945",
"b  c #4C4B44",
"n  c #44434A",
"m  c #49474A",
"M  c #4D4D4B",
"N  c #514F46",
"B  c #504F4B",
"V  c #55534C",
"C  c #58564F",
"Z  c #4D4C54",
"A  c #565553",
"S  c #585753",
"D  c #5A5954",
"F  c #505058",
"G  c #58575C",
"H  c #5D5C5B",
"J  c #634E44",
"K  c #65584F",
"L  c #605E55",
"P  c #6C5B53",
"I  c #725950",
"U  c #616057",
"Y  c #62615B",
"T  c #6A675D",
"R  c #7B6257",
"E  c #5A5A61",
"W  c #4A6565",
"Q  c #5B7575",
"!  c #616366",
"~  c #686763",
"^  c #6C6965",
"/  c #6D6E69",
"(  c #706E64",
")  c #706F6A",
"_  c #74736C",
"`  c #7A766B",
"'  c #7B786F",
"]  c #6F6F74",
"[  c #737274",
"{  c #747A76",
"}  c #7E7B74",
"|  c #757479",
" . c #727A7A",
".. c #7C7C7B",
"X. c #8A6A5D",
"o. c #836D63",
"O. c #817E74",
"+. c #848176",
"@. c #83827C",
"#. c #88857B",
"$. c #8C8A7E",
"%. c #858482",
"&. c #848985",
"*. c #8D8B82",
"=. c #838D8C",
"-. c #8B8A8C",
";. c #938680",
":. c #918F84",
">. c #9A8E83",
",. c #938E8B",
"<. c #949287",
"1. c #95938C",
"2. c #9A968D",
"3. c #9C9A8E",
"4. c #8F8F92",
"5. c #949493",
"6. c #9D9B94",
"7. c #979799",
"8. c #969B9A",
"9. c #9C9C9C",
"0. c #A19F94",
"q. c #A19E9B",
"w. c #A3A194",
"e. c #A5A39A",
"r. c #A9A79C",
"t. c #ACAA9E",
"y. c #A09FA1",
"u. c #A3A3A2",
"i. c #ACABA4",
"p. c #A7AAAA",
"a. c #ADADAC",
"s. c #B1AFA3",
"d. c #B0AEAC",
"f. c #B5B3A6",
"g. c #AFAFB0",
"h. c #AFB1B0",
"j. c #B6B6B6",
"k. c #B8B6B6",
"l. c #B8B8B7",
"z. c #B7B7B8",
"x. c #B7B8B8",
"c. c #BABABA",
/* pixels */
"c.c.c.z.c.c.c.z.l.c.c.l.c.c.c.z.c.c.c.c.c.c.c.c.c.c.c.c.c.c.c.c.c.c.c.c.c.c.c.c.c.c.c.c.c.c.c.c.c.c.",
"c.c.c.l.c.l.l.c.c.c.z.c.z.c.c.l.l.c.c.c.c.c.c.c.c.c.c.c.c.c.c.c.c.c.c.c.c.c.c.c.c.c.c.c.c.c.c.c.c.c.",
"z.c.c.c.c.l.c.c.c.z.z.c.c.c.l.z.c.c.c.c.c.c.c.c.c.c.c.c.c.c.c.c.c.c.c.c.c.c.c.c.c.c.c.c.c.c.c.c.c.c.",
"c.l.c.z.c.c.z.c.c.l.c.c.l.c.c.z.z.c.c.c.c.c.c.z.c.c.c.c.c.c.c.c.c.c.c.c.c.c.c.c.c.c.c.c.c.c.c.c.c.c.",
"c.c.c.c.c.c.c.z.c.c.z.c.c.c.c.z.c.c.c.c.c.c.c.c.c.c.c.c.c.c.c.c.c.c.c.c.c.c.c.c.c.c.c.c.c.c.c.c.c.c.",
"z.l.z.l.z.l.z.c.c.l.c.l.z.c.l.c.l.c.c.c.c.c.c.c.c.c.c.c.c.c.c.c.c.c.c.c.c.c.c.c.c.c.c.c.c.c.c.c.c.c.",
"c.l.c.l.l.z.l.c.z.c.c.z.c.l.l.l.c.c.c.c.c.c.c.c.c.c.c.c.c.c.c.c.c.c.c.c.c.c.c.c.c.c.c.c.c.c.c.c.c.c.",
"l.z.z.c.l.c.z.c.c.c.l.c.c.c.c.l.c.c.z.c.c.c.c.l.c.c.c.c.c.c.c.c.c.c.c.c.c.c.c.c.c.c.c.c.c.c.c.c.c.c.",
"z.z.z.z.c.c.z.l.c.c.c.c.c.z.c.z.c.c.x.c.c.c.c.c.c.c.c.c.c.c.c.c.c.c.c.c.c.c.c.c.c.c.c.c.c.c.c.c.c.c.",
"l.c.z.z.l.l.z.c.c.l.c.z.c.l.c.z.z.c.c.c.c.c.c.z.c.c.c.c.c.c.c.c.c.c.c.c.c.c.c.c.c.c.c.c.c.c.c.c.c.c.",
"l.l.z.z.l.c.z.c.l.c.l.c.z.c.c.l.c.c.c.c.c.z.c.c.c.c.c.c.c.c.c.c.c.c.c.c.c.c.c.c.c.c.c.c.c.c.c.c.c.c.",
"l.l.l.k.z.c.z.c.c.c.z.c.c.c.c.l.c.c.c.c.c.c.c.c.c.c.c.c.c.c.c.c.c.c.c.c.c.c.c.c.c.c.c.c.c.c.c.c.c.c.",
"l.x.l.z.l.c.x.c.c.z.c.l.c.z.l.l.c.c.c.l.c.z.c.c.c.c.c.c.c.c.c.c.c.c.c.c.c.c.c.c.c.c.c.c.c.c.c.c.c.c.",
"z.l.l.z.z.c.l.l.l.c.c.l.z.c.z.z.l.c.c.c.p.9.a.c.c.c.c.c.c.c.c.c.c.c.c.c.c.c.c.c.c.c.c.c.c.c.c.c.c.c.",
"l.l.l.z.l.c.z.c.z.c.c.z.c.l.c.z.k.k.j.a.=.^ ;.d.c.c.c.c.c.c.c.c.c.c.c.c.c.c.c.c.c.c.c.c.c.c.c.c.c.c.",
"z.z.z.z.l.c.z.l.c.l.c.z.z.l.c.j.q.5.7.6.O.X.o.#.q.i.c.c.c.c.c.c.c.c.c.c.c.c.c.c.c.c.c.c.c.c.c.c.c.c.",
"j.j.l.z.l.c.c.c.l.c.x.c.l.c.l.q.@.1.e.0.$.^ D R >.w.9.a.c.c.c.c.l.c.c.c.c.c.c.c.c.c.c.c.c.c.c.c.c.c.",
"z.z.l.l.z.l.l.c.x.x.c.l.l.c.p.[ A *.i.q.,.[ P I { 6.r.e.j.l.c.c.c.c.c.c.c.c.c.c.c.c.c.c.c.c.c.c.c.c.",
"z.j.l.z.z.z.c.z.c.z.l.l.c.j.-.m : H 0.r.5.-./ l z =.r.e.u.l.c.c.c.c.c.c.c.c.c.c.c.c.c.c.c.c.c.c.c.c.",
"z.j.l.z.l.c.l.c.z.c.c.l.l.9.H , o 3 { e.6.1.&.Q W { 1.0.6.a.x.c.c.c.c.c.c.c.c.c.c.c.c.c.c.c.c.c.c.c.",
"k.j.k.z.c.l.c.c.z.j.j.p.8.' h = * - A *.@.O.} } _ ~ ~ / +.*.1.9.p.h.h.l.c.c.c.c.c.c.c.c.c.c.c.c.c.c.",
"z.j.k.z.z.z.z.c.j.6.%._ D a = = * 3 H A x h n _ #.M 5 h M H S H ) [ +.-.5.a.c.c.c.c.c.c.c.c.c.c.c.c.",
"j.j.z.z.z.c.z.j.5.U b V N a + * * k ! h - * > ^ @.x - ; g n V N C D S V B  .a.c.c.c.c.c.c.c.c.c.c.c.",
"k.k.z.k.z.z.c.i.( b b A S N 6 O - A A > - = - H O.n * - f j b N V C S C M A :.l.c.c.c.c.c.c.c.c.c.c.",
"j.j.j.j.j.l.j.9.K b b V C N s < h ~ m - ; = - D ..x = = ; f h b N C D D C N T 6.c.c.c.c.c.c.c.c.c.c.",
"j.j.j.j.j.l.j.2.J N b b N b s c ~ ' h ; , = - S } x * - = ; < m C N V C C C v ! c.c.c.c.c.c.c.c.c.c.",
"l.j.j.j.z.c.g.} u a N b b B b V @.} C M B M V ^ O.V m M B M M D Y s s v N N a v c.c.c.c.c.c.c.c.c.c.",
"j.l.l.j.l.c.d.[ & 2 N b b b c b _ *.$.:.1.6.3.3.1.} O.<.2.2.3.:.L p p p p s s b e.c.c.c.c.c.c.c.c.c.",
"k.z.j.j.z.l.j.*.u , r y p s a p c _ 3.t.t.w.3.3.3.$.#.>.2.e.f.w.V % % & % 2 2 p } j.c.c.c.c.c.c.c.c.",
"z.z.j.j.z.z.z.u.A # 9 w t b v c p V <.s.3.+.` +.$.#.+.+.O.0.f.w.V # $ $ $ $ $ 0 d 6.c.c.c.c.c.c.c.c.",
"k.z.z.j.z.z.z.j...% 7 q e & & & % & L $.$.` ` ` $.$.+.#.+.w.f.w.V $ X X X $ $ 0 i T a.c.c.c.c.c.c.c.",
"z.k.z.j.z.j.j.j.&.1 @ 8 $ # # # # & 2 c ( $.#.+.+.+.O.+.+.0.f.0.V $ X 2 2 < # $ $ M u.c.c.c.c.c.c.c.",
"k.j.z.j.l.j.x.z.y.G + . , % # X 5 c 6 < C <.3.:.@.` ' ,.,.0.t.<.b X < a k 6 % . X M u.c.c.c.c.c.c.c.",
"z.k.j.j.j.l.z.l.j.-.h   X $ X + 6 1 1 1 a / @..._ ~ ) @.%.%.%._ 6 . 4 5 1 3 < . 2 ..j.c.c.c.c.c.c.c.",
"l.j.z.j.j.l.j.l.x.g.[ < o . + & 5 - < 4 % u m v x x v c c c c k % . 5 < - 3 3 O m 9.x.c.c.c.c.c.c.c.",
"j.k.j.j.l.l.l.j.x.x.y.E ; o O # 5 , > 3 + o = o O O O O O O O *   . 4 1 < 3 : = x 5.z.c.c.c.c.c.c.c.",
"l.j.l.j.j.x.z.k.x.x.j.-.F 3 ; ; f 3 < 3 ; ; ; > : : > > > > > > ; - > 5 3 > - > F 9.c.c.c.c.c.c.c.c.",
"l.j.j.j.l.x.z.z.c.z.z.j.5...] E n k k n E ] [ ] [ [ ] [ ] ] ] | | ! n k k h Z | 9.c.c.c.c.c.c.c.c.c.",
"j.j.l.j.z.l.l.z.z.c.l.c.z.j.g.u.4.&.-.5.u.j.j.a.g.j.g.j.j.g.j.g.j.p.5.-.4.4.7.g.c.c.c.c.c.c.c.c.c.c.",
"l.j.j.j.z.z.z.z.x.l.l.z.z.c.c.x.j.j.j.z.x.z.c.c.z.c.c.c.c.c.c.c.c.c.z.z.j.z.c.c.c.c.c.c.c.c.c.c.c.c.",
"j.l.j.k.j.j.j.j.z.z.z.l.l.x.x.x.l.c.c.c.z.l.z.l.l.c.z.c.c.c.z.c.c.c.c.c.c.c.c.c.c.c.c.c.c.c.c.c.c.c.",
"j.j.j.j.j.x.j.j.z.z.z.l.x.l.c.x.z.z.l.l.c.z.c.l.c.c.c.c.c.c.c.c.c.c.c.c.c.c.c.c.c.c.c.c.c.c.c.c.c.c.",
"l.j.z.z.z.z.j.l.z.j.k.l.c.z.c.c.c.c.l.c.c.c.l.z.c.c.c.c.c.c.c.c.c.c.c.c.c.c.c.c.c.c.c.c.c.c.c.c.c.c.",
"j.l.z.z.z.z.j.j.k.k.j.l.l.z.c.l.z.c.c.z.l.c.c.z.c.c.c.c.c.c.c.c.c.c.c.c.c.c.c.c.c.c.c.c.c.c.c.c.c.c.",
"l.l.j.l.l.j.j.l.z.k.z.l.c.z.l.c.l.c.z.c.c.l.c.l.z.c.c.c.c.c.c.c.c.c.c.c.c.c.c.c.c.c.c.c.c.c.c.c.c.c.",
"j.j.j.j.j.l.l.j.z.z.z.l.c.z.c.c.c.c.c.c.z.c.c.z.c.c.c.l.l.c.c.c.c.c.c.c.c.c.c.c.c.c.c.c.c.c.c.c.c.c.",
"z.x.l.j.l.j.j.k.k.k.z.l.c.x.l.c.c.l.c.l.c.c.c.z.c.c.c.c.c.c.c.c.c.c.c.c.c.c.c.c.c.c.c.c.c.c.c.c.c.c.",
"z.j.l.x.j.j.l.z.j.j.z.z.c.z.l.c.c.z.c.c.z.c.c.l.l.c.z.c.c.c.c.x.c.c.c.c.c.c.c.c.c.c.c.c.c.c.c.c.c.c.",
"z.z.j.j.l.j.j.l.j.j.l.x.x.x.x.c.c.x.c.x.c.c.z.c.z.l.l.l.c.c.c.c.c.c.c.c.c.c.c.c.c.c.c.c.c.c.c.c.c.c.",
"z.z.k.z.j.l.l.j.j.j.j.x.c.x.c.c.c.c.l.c.c.l.c.l.c.x.c.z.c.c.c.c.c.c.c.c.c.c.c.c.c.c.c.c.c.c.c.c.c.c."
};
