/* XPM */
static char *result[] = {
/* columns rows colors chars-per-pixel */
"50 50 77 1 ",
"  c #020202",
". c #0C0C0C",
"X c #110A0A",
"o c #1C0E0E",
"O c #141414",
"+ c #1C1C1C",
"@ c #251717",
"# c #251E1E",
"$ c #341717",
"% c #3B1515",
"& c #232323",
"* c #2B2B2B",
"= c #332222",
"- c #392626",
"; c #322C2C",
": c #343434",
"> c #3B3B3B",
", c #4F1E1E",
"< c #472626",
"1 c #4A2A2A",
"2 c #5E2323",
"3 c #502D2D",
"4 c #4C3232",
"5 c #403F3F",
"6 c #483F3F",
"7 c #533232",
"8 c #543E3E",
"9 c #593F3F",
"0 c #6B2323",
"q c #6F2A2A",
"w c #7F3535",
"e c #723D3D",
"r c #444444",
"t c #4A4343",
"y c #4B4B4B",
"u c #534B4B",
"i c #5B4C4C",
"p c #545454",
"a c #5B5353",
"s c #5C5C5C",
"d c #624343",
"f c #624C4C",
"g c #6A4A4A",
"h c #7B4545",
"j c #764E4E",
"k c #675353",
"l c #635E5E",
"z c #7F5C5C",
"x c #5F6161",
"c c #636363",
"v c #6C6C6C",
"b c #786666",
"n c #737373",
"m c #7C7C7C",
"M c #852929",
"N c #854646",
"B c #8E4242",
"V c #8B4D4D",
"C c #925151",
"Z c #966666",
"A c #827D7D",
"S c #848484",
"D c #8C8B8B",
"F c #908F8F",
"G c #939393",
"H c #9B9B9B",
"J c #A3A3A3",
"K c #ACACAC",
"L c #B0ACAC",
"P c #AFB0B0",
"I c #B4B4B4",
"U c #BABABA",
"Y c #C3C3C3",
"T c #C8C7C7",
"R c #CCCCCC",
"E c #D4D4D4",
"W c #D9D9D9",
/* pixels */
"UUUUUUUIUIUUIUUUUUIH5+++++++++&++++:DIUUUUUUUUUUUU",
"IUUIIUUUUUUUUIUPUPDvxxcccccxcccxccccvSIUUUUUUUYUUU",
"UIUUUUUUUIIUUUIUUHr*SJJJJHJJJJJJJKUHppGUUUUUUUUUUU",
"UUUUIUUIUUUUIUUUJs+.*:::>>:>:::::cHcAmcHUUUUUUUUUU",
"UUUUUIUUUUPUUIUPvr>;&&&&::::&+&+&smrpvvvKUUUUUUYUY",
"IUIIUUIUUUUUUUUGypxppyypvvvs55yyynv:*ymsAKUUUUUUUU",
"UUUUUIUUUUUIPUPmpspxmSmmvvvcttnmcvstyppmsDUUUUUUUU",
"UIUIUUIUPUUUUUJcssvmSSSmsssfeivmnmuejarsmAPUUUUUUU",
"IIIUUUIUUUUIUKnpscmSSSSnprtgChlnnDfVVirrnvSPUUUUUU",
"UUUIIUUIIUULJS5ysmmAmmmvsy6jZNkvvAgzh9yarsxJUUUUUU",
"UIUIUUIUUUIDr:rpcnmnmnnccc6eBwtlxa1<=;5cscSDPPUUUU",
"UUUIIUUUUUKmy:ypcnvnvnvpcv8qMM3tvu<is:&rypDmccSUUU",
"IUUIUUIUUUKnvrrycvvcvvcpss4200,:nidLYc+&+:Sx+;xJUU",
"UIUIUIUIKKGr;>;rssssssyrpr#@@$%;l7bTEKyOO*DS>SDGUU",
"IUUUIUIHcpy+.+O&******&&*+...Xo5v1cKUJp++rKKxSDGIU",
"UIIIUIGvr5>>>:>>>>>>>>>>>>555>rvA-uGHS:O+xYYScnGUU",
"UIUUUHppGJJJJJKJKJJKJKJJJKUUUUPPF*>mDc*+*mUEYmsHUU",
"IIIIJxvGUYTEEEEEEEREEEEEEEEERYURPc>5>pSFFHKYYJvvKU",
"IUIKnvJUYTEEEWWWWEWWEWWEEWETYUJTYDr>pATWEPJUUUGcHU",
"IIIDxJYYREEEWEEWWWWWWWWWWERYYUJPRJvnUREWEPJUYYPGDP",
"UUPSHYYTEWERETEEWWWWWWEEERYUUUKJYUHUWEEERPJIUUYJmJ",
"IIHDYRTEERTRERREWWWWWWUAHYYUUKPPYUPEWEEEEUHIUUPJmJ",
"IJSHEEEWEYTRRREWWWWWYKSrvUYUKSGUUPKRERYYTIHPUHSGAG",
"PSpKWEEWTYETEEWWWWETD>rmSUYUS;pKUKJUYYUPKKHUPc;mDm",
"Kp5IWWWEYTEREEWWWEUnxxpvSUYPs.*FUKJUYUUUPJJUH:.ySn",
"H55JWWWWTREEEEWWRPSrpDcrvHJDr>>vPPHUYUUUUKPUS>>>vv",
"JypDRWWERREEWWWEKsrvpsp>xmnyrGvyHPHUUUUYUJPKpxGpyv",
"HypnUWWWETEEWWWPc5y5*>5xHJSrpDmyAJJIYUYUUKPDrnDvyc",
"Dy>yJEWEEEEEWERD:&:O.&sHYUHrcSmsmJHUUYUYUKKA5mSnps",
"ny*>GEEEEEEEEEYS>**&+*DTYYHrcGSnmJJUYUUUUJKm5mDSps",
"vnSHPTTYYYYYYYUKGGFDmmJYUUSrpnmnxGJUUUUYIJKxrsSSxs",
"nSPYUUUUUUYUUYYUYUYUJHPUYUmrppsncGJUUYYUKJKpprpcvc",
"nGPUUKPKKPPPKKPUUUYUKJKJUImrs>rmnHJUYUUUJHKppy:sAn",
"mGIUJDDDDDDDDDFPYUUUKJSsHUvrxrxDmGJUUUUKGJKppp5mSn",
"DSPIFAmSSmAAAmmHUUUUKKc5DPvyDAnmmHHUYUPHGKJycDmvAn",
"JSPJnxxxsxxxxxpvKUYIKHpsmKvyJHcvnGJUUPJGFUHyvKSxmn",
"JmHSy*&**&*&**&:DUUIJmrnDJvrDm>vmFHUPHHGDUJrcGsrnn",
"JxDm:+++++++++++sKUIHy+pHJcrvp:vnSFJHGHGGUHysv5rmn",
"DvDm&.OOOOOOOOOO:HUKD5O:KKx5ss5nvSSGHHGDGUHrpxyymn",
"nnDnO..   .     OnUKnp:rKKcrcvsnvASGGGDSJUGrpxvxmn",
"nnvcO           .rKHpsynLJcymsnmvmSDGmnHYYDrcnxnmn",
"crpc+           .sPDy>rHIHs:vrsmvmmmSFJYEIDrycrcSn",
"synvO           &DYHnyvIKGs&p:rnvDDSDUEEYJD5:p*smm",
"vKUS*OOOO+OOOOOOpUWTUUUPJGx&p>pnsPYUYRERJHD5*p5vSH",
"vUYHSDSDSSDSDSSSHYYUPIKJHGx+>cvvyHPPPPPKHHD>+pxmmJ",
"sHJGHKKKKKKKKKKKJKJHGFFFDFs.&nDs>mGFFFFFDFS>.rSSmK",
"rvnvscxcccccccccnnnnnnnnnny..cG>&xnnnnnnnnv* +SDSI",
"+&&&++++++O+++++&&&&&&&&&&O  +:..&&&&&&&&&&O .*>nK",
"*.                                             .>c",
"pO                                              .."
};
