/* XPM */
static char *result[] = {
/* columns rows colors chars-per-pixel */
"50 50 72 1 ",
"  c #020202",
". c #0C0C0C",
"X c #1C0E0E",
"o c #141414",
"O c #1C1C1C",
"+ c #251717",
"@ c #341717",
"# c #3B1515",
"$ c #232323",
"% c #2B2B2B",
"& c #392626",
"* c #322B2B",
"= c #3F2A2A",
"- c #343434",
"; c #3B3B3B",
": c #4F1E1E",
"> c #472626",
", c #4A2A2A",
"< c #5E2323",
"1 c #4B3232",
"2 c #403F3F",
"3 c #483F3F",
"4 c #533232",
"5 c #543E3E",
"6 c #6B2323",
"7 c #6F2A2A",
"8 c #7D2929",
"9 c #723D3D",
"0 c #444444",
"q c #4A4343",
"w c #4B4B4B",
"e c #534B4B",
"r c #5B4C4C",
"t c #545454",
"y c #5B5454",
"u c #5C5C5C",
"i c #624343",
"p c #624C4C",
"a c #6A4A4A",
"s c #7B4545",
"d c #764E4E",
"f c #665252",
"g c #635D5D",
"h c #5F6161",
"j c #636363",
"k c #6B6060",
"l c #6C6C6C",
"z c #786666",
"x c #737373",
"c c #7C7C7C",
"v c #852929",
"b c #854646",
"n c #8B4D4D",
"m c #925151",
"M c #966666",
"N c #827D7D",
"B c #848484",
"V c #8B8B8B",
"C c #908F8F",
"Z c #939393",
"A c #9B9B9B",
"S c #A3A3A3",
"D c #ACACAC",
"F c #B0ACAC",
"G c #AFB0B0",
"H c #B4B4B4",
"J c #BBBBBB",
"K c #C3C3C3",
"L c #C8C7C7",
"P c #CCCCCC",
"I c #D4D4D4",
"U c #D9D9D9",
/* pixels */
"JJJHJHJJJJHJGV-OOOOOOOOOOOOOO0AJJJJJJHJJJJJJJJJJJJ",
"JJJJJJJHHJJGBjjjjjjjjhjjjjjjjjlVHJJJJJJJJJJJJJJJJJ",
"JHJHJJJHHJHCttAJDSSSSSSSSSSSSc%0AJJJJJJJJJJJJJKJJJ",
"JJJJJHJJJJAucBjSh------;;----%oOtDJJJJJJJJJJJJJJJJ",
"JJHJHJJHJSlllt2cuOO$O$--;-$$O$-;0xGJJJJJJJJJJJJJJJ",
"JHJJJHJJDchcw%-lxwww20hjjjuwwtuhtwZJJJJJJJJJJJJJJJ",
"HJHJJJJHCuctte0yxjcxwquxxxccNcjwutcGJJJJJJJJJJJJJK",
"HJJJHHJDNxu0tdsecxcjispytucVBBcluujSJJJJJJJJJJJJJJ",
"JHJHJJDBxx00rbnpVxxgsmaq0txBBBBcjutcDJJJJJJJJJJJJJ",
"HJJJJJSuu0u0rsmpNllfbMd3wulcNccNxhw0NSGJJJJJJJJJJJ",
"HJHDHDCNjuh2*@=,yju5vb93hlhcccccchw0;wVJJJJJJJJJJJ",
"JJHBjjxVt00%-uy>elw48v75jjujllxlxhtw%wcGJJJJJJJJJJ",
"HJSj-OjB-OOOjKFiix-:66<1uhthlllllht00xxDJJJJJJJJJJ",
"JFZBB;BV%oOwDULz4g*#@++$0t0wtuutuh0--%0ZGGJJJJJHJJ",
"JGVVcuDD0OOtSHDk,l2X....O%$$%%%%%%$oO.OwuhAJJJJJJJ",
"JDAxjBKJhOo-BSZw&Nl22222;;;;2;;;;;;;-;;220lZHJJJJJ",
"HGAucKPJx%O%lBc;*ZHDJJJHDDDSDDSDDDSDSDSSSZwtAJJJJJ",
"JDllSLKGACCBt;2;jDLJKPIUPPIPPIIPPIIPIPILKJZxjSJJJJ",
"HZjCJJJDGIULct;0CKLDJKLIUUUUUUUIUIUUUIUPKKJSlcDJJJ",
"GBCJJJHDGIUUPJxlDLHSJJKPUUUUUUUUUUUIUUIIUPKKAhCJJJ",
"ScDJJKHSGPUUUUHAJLDDJJJKPIPUUUUUUUUIPUPPUILKKAVGJJ",
"AcDGHJHAJPIPIUIGHKDDDJJKKABJUUIUUUIPPPPLPIILIKVSJJ",
"ZcABAJHAHLKKPIPDDJJZBDJJJl0BDKUUUUUUPPILJIUIIPABDJ",
"cVc%jGHAGDGJKKJSDJDt-BJKJBxw2BLUUUUUUPPPKPUUIUDtNJ",
"lBw.-AJDSDHJKJHSDJC%.hGJJBlujhxJUUUUIIPPLLIUUUH0tD",
"lj2;;cJGDJJJJKJSGHl;;0VSSl0jBt0NGPUUUUIIPLIUUUS02S",
"jwtZjtDGDHKJJJJADAwlC0wcch;whtl0hDIUUUIPPPIUUPBwwS",
"jtlVx0VGDJJJJKJSDN0cVu0VAAj2;%0w2jGUUUUPPIUUUJcttS",
"htcBc2NGDHJKJKJSSctcBj0AKJAt$.o-$-ZPUUUIPIUUUSw-wB",
"ttcZc2cDDHJJJJHAAcxBCj0AJKLV%O$%$2BKIIIIIIIIPA;%wx",
"thcBtwhDDGJJJKHDAhccct0BJKKDccVCZZDJKKLLLLKKKGABxx",
"jljtwtwDDDKKJJJSZjluwt0cJJJGADJJJKJJJJJJJJJJJJKGBx",
"xcu-wttDSSHJJKJSZcc0;t0cJHSDADJKJJJGGGGDGGGDGHKGZx",
"xBx0tutDAZDJKJHSZcBh0h0xHSuBSDJJJKGCBVVVVVVVVSJHZc",
"xcxcCjwSGCAGJJJSAcccBV0lGB0jDDJKJJAccNNcccNNNCHHBZ",
"xxuBDlwAJCZSGJHSZcljASwlDcutADGJKDlthhhhhjhhhxSDBS",
"xx0uZh0SHZZASDHAZcj;cVwjSVc2cSJJJB-$%%%%$%%%%wBScS",
"xc02luwAHCZAZSSCBxl;tx0jDAwO0AGJGuOOOOOOOOOOO-cVlS",
"xctwut0AJZVZAZZBNlx0th0jDS-O0VGJA-ooooooooooo$cVjV",
"lchjhu0ZJSBVCAABNlxhjj0jDD0-txDHxo           oxVxc",
"xNxhxh0CKLAccZZBNlcxuc0jAHxwutASw            Ojlxx",
"xBj0hw0VHPJSZcccclcu0j-hAHA02wVHu.      .    ojt0j",
"ccu%t-;VDKIIJCcVVlx0-t$hZDHltlZLZ$           olxwh",
"ABl;u%2VADLIPKJKGuxu2t$hAADJJJKIJwOoooooooooo%BJDj",
"AcxhtO;VZADGGGGGAwllj2OhZAAGHHJLKZBBBBVBBBVBBBAJJl",
"DcVB0.;BZCCCCZCZN-uBcO.uCZCCVZADDDDDDDDDDDDDDSASAh",
"GBVBO %lxxxxxxxxj$-Zj..0xxxxxxxxxxjjjjjjjjjjjjlxx0",
"Dx-%. o$$$$$$$$$$.o-O  O$$$$$$$$$$OOOOoOOOoOOO$$$O",
"h;.                                             .%",
"..                                              oy"
};
