/* XPM */
static char *result[] = {
/* columns rows colors chars-per-pixel */
"50 50 76 1 ",
"  c #020202",
". c #0C0C0C",
"X c #110A0A",
"o c #141414",
"O c #1C1C1C",
"+ c #251717",
"@ c #281717",
"# c #251E1E",
"$ c #341717",
"% c #3B1515",
"& c #232323",
"* c #2B2B2B",
"= c #332222",
"- c #392626",
"; c #322B2B",
": c #3F2A2A",
"> c #343434",
", c #3B3B3B",
"< c #4F1E1E",
"1 c #472626",
"2 c #4A2A2A",
"3 c #5E2323",
"4 c #4B3232",
"5 c #403F3F",
"6 c #483F3F",
"7 c #533232",
"8 c #593F3F",
"9 c #6B2323",
"0 c #6F2A2A",
"q c #7F3535",
"w c #723D3D",
"e c #444444",
"r c #4A4343",
"t c #4B4B4B",
"y c #534B4B",
"u c #5B4C4C",
"i c #545454",
"p c #5B5454",
"a c #5C5C5C",
"s c #624343",
"d c #624C4C",
"f c #6A4A4A",
"g c #7B4646",
"h c #764E4E",
"j c #665252",
"k c #635D5D",
"l c #5F6161",
"z c #636363",
"x c #6A6464",
"c c #6C6C6C",
"v c #786666",
"b c #737373",
"n c #7C7C7C",
"m c #852929",
"M c #854646",
"N c #8E4242",
"B c #8B4D4D",
"V c #925151",
"C c #966666",
"Z c #827D7D",
"A c #848484",
"S c #8B8B8B",
"D c #908F8F",
"F c #939393",
"G c #9B9B9B",
"H c #A3A3A3",
"J c #ABABAB",
"K c #B0ACAC",
"L c #AFB0B0",
"P c #B5B5B5",
"I c #BABABA",
"U c #C3C3C3",
"Y c #C8C7C7",
"T c #CCCCCC",
"R c #D4D4D4",
"E c #D9D9D9",
/* pixels */
"IIIIIIIPIPIPIIIPIIIPIIIPJHHHSbcbnnDHJHFnbzlccaeO>i",
"PIIPPIIIIIIIIIIPIIIIIIJZietittcSDFSnnzzbcttJIHc&.o",
"IIPIPIIPPIPIPIIIIIIPLHAieeti,*SLPLPLGSSScicIIHn&  ",
"IIIIIIIIIIIIPIIPIIJDASGJLHSbteFIIIPHSnnczzcSGFcO  ",
"IIPIIIIIIPIIIPPIPHnlGUTEEEYIHFLIIHDbt>&OOoo*AHzO  ",
"PPIIPIIPIIIPIIIPGzzHUTREEEEERRUUKSZl*Oo    oAJzo  ",
"IIPIIPIIIIIIPIPFicJUUYRREEEEERUIJSnl&Oo    oAJzO  ",
"PIIIPIIPPPIPIPGctFIUTREERREEERUIJSAz*Oo    oSJzO  ",
"PPPIIIPPIPPIILleFIYTRRRTYYTRRRUIJSnz&Oo    oAJzO  ",
"IIIPPIIIIIIIILieHUYRETIYYTTYTRYIPSAa*Oo    oSJzo  ",
"PIPPPIIPIIPJJFt,HYTRRYYTRRTRRRUIJSAa*Oo    oAJzO  ",
"IPIIIIPIIJSnceO,HRERTTTTTRREERYIJSnz&Oo    oAJlO  ",
"PIIPIPPIIHetc>.,JRRRRTTTREEEERUIPSnz*Oo    oAJzO  ",
"PPIPIIIIJn>>t>o,HRERTTTREEEEERYIJAna*Oo  . oSJzO  ",
"IPIPPIJHbeete*o,HRERRRREEEERTUIIPFni&Oo    oAJzO  ",
"PIPIJFnziiyitt&,JREEREEEEERLSAJUIJGc>Oo    oAJzO  ",
"PIIJctiaazzzza*,HTREEEEEETJz>,FIIUIJAa>o .&iGJc&  ",
"PLFitiaazbbcca*,JREEEREEELl,&*FUIIIUIPGbtlSIIJb&  ",
"LSto,licnnbbza*,JREEEEEEIAet>*SUIUUIIIIPHPYRYJb&  ",
"Gc*o*ilnAZncca*,HRREEEEYbec5o&SIIIIPPPJJGSFYIGb&  ",
",lZ*&tnAAnncca*,JTREEEUAaii*.OnHJJJJHGSbitcIPFb&  ",
"OlH>&iAAAZncca*,HREEEEJ,lSl,&*nGGHJGnteil,iPPSb&  ",
"OzH>OtAAZAbcat&,JRREEIAtili,aSHLJAzieOO>ttcPJFb&  ",
"OlH>*ibnbcliie&,HRRERAebct5lGYUUHaeabt>ebGJPHSb&  ",
"&lH>>zbaiazzzi*,JRRERGcAAclGIUUIIGAnSGHHPPJGGFb&  ",
"OzH>,zcirtzzae&,JRERTUIIIGnGUIIIPPPJHJJJGGFFFSb&  ",
"&zH,,ccay6664#.,LRRTUIIUUHbSGGAnbbcczzzzzaazaato  ",
"OzH>>aljfhw03+.,IRYUUIIILAttteeeeettteeet>&&O..   ",
"OzH,&erwVCNm9@.eITUIIIJAaetilziiazSHSclzncii,&.   ",
"OzG>O,tsgMmq9$X,IUIIILA>.,DSASbi,enGniacae>,zbz&  ",
"OzG>&tcckj82<%o5LIJHJJFi*,cnnAAaezbc,>eacaeacSF>  ",
"&zH,Otbnbcar>;ecLTUPJJIJFcttibbbnAnczcbbnnbbci,.  ",
"OzH>&ecbcclcbkxZFJUTYUIUILGAnnaznnnnbbcccccat,&.  ",
"OzJzabcnSZpuu72-*lDJIPJJJJJHHGFFGFGFFSZZnASLGnlO  ",
"OzIGncpydu21svxy,>tzGLJHHGHHHHHHHHHHGSASAnSULFb*  ",
"*zGc,,rwBV:pKYJFn5,bIRTIIIPIPIPIPIPIPHFGFbZULFc&  ",
"SziAi*yhBg=aIEPHS,iIEERUIUIUIUIUIUIILHGFSASULFc&  ",
"JAinctiiu8;>zJHAzinRERYUIIUIIIUIIIIPGFFDnFITLFb&  ",
"PJFacnieete&&ti>*AUEETUIIIUIIUIUUIJHGFGSbHRRLFb*  ",
"IPPGcabaeiar&oOoODEERRULIIIUUIIIPJGFFFSAGURYJFc&  ",
"PPIPHAabctatOoOO&FRRTRYJJIIIIILJHFDDDDFHYTIJGFc*  ",
"IPPPPJSZcazi>*eznGLJPPIJJJHJHJJHHHLIIPIIIIJGGSb&  ",
"PPPPPPPJSlnSASJIILJJGGGGHLLLLJJJJJHGHGFFSSSSSAz&  ",
"IPPIPPPIJGSbzAJUTUIIPPPPIIJSZnaiitttetttte555,*o  ",
"PPPPPPIPPIJzOeaAUUIIIIILGnite5tiiazcziiilt>*O.    ",
"IPPIPIPPPILz>ZnznHIUIIGl>,lcnbittiDJFclzcziii5&.  ",
"PIIPPPPIPILAzSSbacSPULA*.,GSADAi>enAa,tzze*elAA&  ",
"PPIPPIPPPPPPHFDFGczSJJGbt,icnnnzibbaeeilnzaznSS,. ",
"IPPPIIPPPPIIPPLPIJFSnnZSActiiiacZAAbbnnnAAnAnnAb5.",
"IPIPPPPIIPPIPIIIPIPLHHDncczzlaazbbbbbbbbbbnGHJLJz."
};
